HIERARCHY
ROOT Hips
{
	OFFSET 47.372101 -34.977116 84.160294
	CHANNELS 6 Xposition Yposition Zposition Xrotation Yrotation Zrotation
	JOINT spine
	{
		OFFSET 0.000000 -0.359108 6.244789
		CHANNELS 3 Xrotation Yrotation Zrotation
		JOINT spine1
		{
			OFFSET 0.000000 0.000000 9.069412
			CHANNELS 3 Xrotation Yrotation Zrotation
			JOINT spine2
			{
				OFFSET 0.000000 -0.000004 8.690140
				CHANNELS 3 Xrotation Yrotation Zrotation
				JOINT Neck
				{
					OFFSET 0.000000 -1.063725 22.311211
					CHANNELS 3 Xrotation Yrotation Zrotation
					JOINT Head
					{
						OFFSET 0.000000 0.000000 6.740814
						CHANNELS 3 Xrotation Yrotation Zrotation
						End Site
						{
							OFFSET 0.000000 5.380968 16.316498
						}
					}
				}
				JOINT RightShoulder
				{
					OFFSET -3.659161 0.509514 9.384682
					CHANNELS 3 Xrotation Yrotation Zrotation
					JOINT RightArm
					{
						OFFSET 0.000000 -0.000004 12.308914
						CHANNELS 3 Xrotation Yrotation Zrotation
						JOINT RightArmRoll
						{
							OFFSET 0.000000 0.000000 6.213745
							CHANNELS 3 Xrotation Yrotation Zrotation
							JOINT RightForeArm
							{
								OFFSET 0.000000 -0.000004 18.098495
								CHANNELS 3 Xrotation Yrotation Zrotation
								JOINT RightForeArmRoll
								{
									OFFSET 0.000000 0.000000 6.972794
									CHANNELS 3 Xrotation Yrotation Zrotation
									JOINT RightHand
									{
										OFFSET 0.000000 0.000000 13.992905
										CHANNELS 3 Xrotation Yrotation Zrotation
										End Site
										{
											OFFSET 0.000000 0.000000 0.100006
										}
									}
								}
							}
						}
					}
				}
				JOINT LeftShoulder
				{
					OFFSET 3.659161 0.509514 9.384682
					CHANNELS 3 Xrotation Yrotation Zrotation
					JOINT LeftArm
					{
						OFFSET 0.000000 -0.000004 12.308914
						CHANNELS 3 Xrotation Yrotation Zrotation
						JOINT LeftArmRoll
						{
							OFFSET 0.000000 0.000000 6.213745
							CHANNELS 3 Xrotation Yrotation Zrotation
							JOINT LeftForeArm
							{
								OFFSET 0.000000 -0.000004 18.098495
								CHANNELS 3 Xrotation Yrotation Zrotation
								JOINT LeftForeArmRoll
								{
									OFFSET 0.000000 0.000000 6.972794
									CHANNELS 3 Xrotation Yrotation Zrotation
									JOINT LeftHand
									{
										OFFSET 0.000000 0.000000 13.992905
										CHANNELS 3 Xrotation Yrotation Zrotation
										End Site
										{
											OFFSET 0.000000 0.000000 0.100006
										}
									}
								}
							}
						}
					}
				}
			}
		}
	}
	JOINT RightUpLeg
	{
		OFFSET -5.535149 0.851456 -1.014999
		CHANNELS 3 Xrotation Yrotation Zrotation
		JOINT RightUpLegRoll
		{
			OFFSET 0.000000 0.000000 16.407501
			CHANNELS 3 Xrotation Yrotation Zrotation
			JOINT RightLeg
			{
				OFFSET 0.000000 0.000004 -20.318100
				CHANNELS 3 Xrotation Yrotation Zrotation
				JOINT RightLegRoll
				{
					OFFSET 0.000000 -0.000004 20.384598
					CHANNELS 3 Xrotation Yrotation Zrotation
					JOINT RightFoot
					{
						OFFSET 0.000000 -0.000004 16.966805
						CHANNELS 3 Xrotation Yrotation Zrotation
						JOINT RightToeBase
						{
							OFFSET 0.000000 -0.000004 14.183403
							CHANNELS 3 Xrotation Yrotation Zrotation
							End Site
							{
								OFFSET 0.006012 0.791744 6.868896
							}
						}
					}
				}
			}
		}
	}
	JOINT LeftUpLeg
	{
		OFFSET 5.535149 0.851456 -1.014999
		CHANNELS 3 Xrotation Yrotation Zrotation
		JOINT LeftUpLegRoll
		{
			OFFSET 0.000000 0.000000 16.407600
			CHANNELS 3 Xrotation Yrotation Zrotation
			JOINT LeftLeg
			{
				OFFSET 0.000000 -0.000004 20.318100
				CHANNELS 3 Xrotation Yrotation Zrotation
				JOINT LeftLegRoll
				{
					OFFSET 0.000000 -0.000004 20.573112
					CHANNELS 3 Xrotation Yrotation Zrotation
					JOINT LeftFoot
					{
						OFFSET 0.000000 -0.000004 16.778305
						CHANNELS 3 Xrotation Yrotation Zrotation
						JOINT LeftToeBase
						{
							OFFSET 0.000000 0.000000 14.183395
							CHANNELS 3 Xrotation Yrotation Zrotation
							End Site
							{
								OFFSET -0.026943 0.791740 6.868896
							}
						}
					}
				}
			}
		}
	}
}
MOTION
Frames: 9
Frame Time: 0.041667
48.652096 -3.834549 60.074104 45.737296 1.833724 -7.932728 -0.425053 -0.380967 -0.150794 3.137819 -0.762507 -0.309604 4.782949 -0.766220 -0.300471 -23.294956 9.268011 3.913412 15.888494 -2.996035 0.571189 -13.263811 -37.145280 -14.734670 135.400755 -23.659804 85.903091 -0.000001 -0.000000 0.000003 61.873837 -19.847022 9.951353 -0.000026 -0.000002 -2.999997 -5.000243 -7.998806 0.000141 -15.852821 52.593430 18.595429 -77.141557 146.946493 120.586471 -0.000001 0.000007 0.000001 60.050846 24.940207 -12.834367 -0.000008 -0.000001 3.000013 -4.999767 7.998719 -0.000032 -113.302115 168.805953 -0.025238 179.999991 0.000005 -0.383992 106.867100 -1.067949 -1.720650 -0.000007 0.000002 1.132689 70.308171 6.600152 2.827930 25.513519 -7.355412 0.084647 -115.120475 178.095434 10.563493 -0.000008 -0.000005 -0.471902 -83.696544 -3.385633 -1.749322 -0.000003 0.000004 -2.071240 75.789268 -6.589773 -2.516320 26.381215 7.334862 -1.321149 
48.656498 -3.938429 60.074997 45.689898 1.835195 -7.945916 -0.424459 -0.377855 -0.149597 3.137260 -0.756221 -0.308267 4.782390 -0.759907 -0.299206 -23.210904 9.207361 3.880392 15.847181 -2.937770 0.557553 -13.248112 -37.199304 -14.715945 135.392736 -23.680780 86.035330 -0.000000 -0.000000 0.000001 61.727835 -19.880866 9.950787 -0.000026 -0.000001 -2.999998 -5.000241 -7.998805 0.000144 -15.818088 52.652562 18.553683 -77.107440 146.934950 120.404801 -0.000002 0.000008 0.000001 59.891928 24.985556 -12.829774 -0.000011 -0.000002 3.000011 -4.999763 7.998720 -0.000033 -113.191473 168.773005 -0.076306 179.999991 0.000005 -0.389989 106.792678 -0.988282 -1.655116 -0.000006 0.000002 1.150059 70.434140 6.628702 2.744187 25.521693 -7.355405 0.096925 -114.971359 178.083276 10.556035 -0.000007 -0.000005 -0.475525 -83.681067 -3.397025 -1.760134 -0.000001 0.000005 -2.077530 75.854155 -6.587090 -2.520093 26.388569 7.334410 -1.331611 
48.656597 -4.025791 60.112797 45.641284 1.836252 -7.958557 -0.423920 -0.374802 -0.148500 3.136701 -0.750043 -0.307049 4.781826 -0.753705 -0.298055 -23.131773 9.152568 3.850695 15.810904 -2.887495 0.546073 -13.231622 -37.251824 -14.696035 135.385428 -23.701197 86.169680 0.000000 -0.000000 0.000002 61.580883 -19.913541 9.949029 -0.000026 0.000001 -3.000001 -5.000243 -7.998805 0.000144 -15.783362 52.714734 18.512053 -77.074976 146.923803 120.224075 -0.000000 0.000007 -0.000001 59.731206 25.032466 -12.825652 -0.000010 -0.000001 3.000008 -4.999767 7.998721 -0.000032 -113.079437 168.741531 -0.125193 179.999991 0.000006 -0.396996 106.718400 -0.911036 -1.590119 -0.000007 0.000002 1.166940 70.559057 6.655606 2.664065 25.530084 -7.355395 0.109434 -114.822160 178.071925 10.547598 -0.000003 -0.000005 -0.479123 -83.667727 -3.408604 -1.771095 -0.000001 0.000004 -2.084000 75.919410 -6.584383 -2.523945 26.396311 7.333941 -1.342568 
48.662395 -4.077431 60.212296 45.591653 1.836861 -7.970660 -0.423453 -0.371841 -0.147525 3.136083 -0.744059 -0.305981 4.781220 -0.747697 -0.297056 -23.058282 9.105276 3.825113 15.781200 -2.847214 0.537299 -13.214198 -37.302761 -14.674827 135.378625 -23.721785 86.305246 -0.000001 0.000000 -0.000001 61.433173 -19.945139 9.946406 -0.000026 -0.000004 -3.000001 -5.000243 -7.998803 0.000144 -15.748833 52.780184 18.470828 -77.044855 146.912943 120.045192 -0.000001 0.000007 -0.000002 59.568989 25.080969 -12.822335 -0.000012 -0.000002 3.000011 -4.999770 7.998721 -0.000033 -112.965878 168.711943 -0.171387 179.999991 0.000006 -0.402993 106.644914 -0.837935 -1.529420 -0.000006 0.000002 1.183059 70.682445 6.680395 2.588816 25.538472 -7.355392 0.122057 -114.673221 178.061529 10.539686 -0.000004 -0.000005 -0.482664 -83.657489 -3.420424 -1.782434 -0.000001 0.000004 -2.090700 75.985124 -6.581613 -2.527965 26.404461 7.333462 -1.354157 
48.651894 -4.084024 60.391197 45.541102 1.836998 -7.982229 -0.423105 -0.369015 -0.146708 3.135412 -0.738346 -0.305092 4.780532 -0.741966 -0.296232 -22.991749 9.067179 3.804555 15.759166 -2.818961 0.531761 -13.195916 -37.351818 -14.652310 135.372915 -23.741147 86.443120 0.000000 -0.000001 0.000001 61.284467 -19.975640 9.942578 -0.000025 -0.000002 -3.000002 -5.000241 -7.998803 0.000143 -15.714927 52.849596 18.430516 -77.017001 146.902179 119.867689 -0.000002 0.000007 -0.000000 59.405509 25.130879 -12.819736 -0.000010 -0.000003 3.000009 -4.999768 7.998718 -0.000033 -112.850721 168.684513 -0.213334 179.999991 0.000006 -0.408991 106.573115 -0.770102 -1.472833 -0.000006 0.000002 1.198160 70.803476 6.702639 2.519923 25.546858 -7.355391 0.134709 -114.525047 178.052254 10.530701 -0.000005 -0.000004 -0.486119 -83.651253 -3.432502 -1.794077 -0.000002 0.000005 -2.097679 76.051431 -6.578845 -2.532157 26.413224 7.332967 -1.366541 
48.621696 -4.142851 60.480087 45.489736 1.836625 -7.993250 -0.422914 -0.366358 -0.146075 3.134625 -0.732986 -0.304420 4.779756 -0.736589 -0.295621 -22.932879 9.039962 3.789816 15.746253 -2.804758 0.530011 -13.176517 -37.398913 -14.628279 135.368052 -23.759144 86.583043 -0.000001 -0.000000 0.000002 61.134681 -20.005158 9.937807 -0.000024 -0.000000 -3.000001 -5.000238 -7.998802 0.000141 -15.681896 52.923321 18.391473 -76.992693 146.891127 119.693710 -0.000001 0.000007 -0.000001 59.240778 25.182211 -12.817837 -0.000012 -0.000002 3.000009 -4.999765 7.998718 -0.000032 -112.733871 168.659719 -0.249345 179.999991 0.000006 -0.413990 106.503789 -0.709191 -1.421135 -0.000006 0.000002 1.211960 70.921877 6.721839 2.458831 25.555238 -7.355370 0.147294 -114.378348 178.044235 10.521176 -0.000004 -0.000005 -0.489457 -83.649962 -3.444868 -1.806253 -0.000002 0.000005 -2.104990 76.118640 -6.575996 -2.536490 26.422684 7.332462 -1.379883 
48.627197 -4.233170 60.510292 45.437652 1.835722 -8.003736 -0.422911 -0.363911 -0.145660 3.133723 -0.728059 -0.303995 4.778852 -0.731650 -0.295251 -22.882681 9.025331 3.781753 15.743878 -2.806620 0.532603 -13.156187 -37.443814 -14.602822 135.363872 -23.776583 86.724155 -0.000001 -0.000000 0.000003 60.983815 -20.033607 9.931810 -0.000025 -0.000003 -2.999999 -5.000242 -7.998802 0.000146 -15.650096 53.001916 18.354125 -76.971301 146.879926 119.521794 -0.000002 0.000007 -0.000002 59.074962 25.234843 -12.816503 -0.000009 -0.000002 3.000012 -4.999766 7.998721 -0.000033 -112.615128 168.637862 -0.279988 179.999991 0.000005 -0.418990 106.437857 -0.656552 -1.375155 -0.000006 0.000002 1.224221 71.036911 6.737575 2.406823 25.563416 -7.355374 0.159717 -114.233555 178.037651 10.511606 -0.000005 -0.000005 -0.492647 -83.654285 -3.457687 -1.818871 -0.000002 0.000005 -2.112700 76.186867 -6.573063 -2.541054 26.432853 7.331938 -1.394309 
48.637295 -4.322811 60.543297 45.385057 1.834246 -8.013666 -0.423124 -0.361711 -0.145491 3.132647 -0.723646 -0.303847 4.777776 -0.727230 -0.295154 -22.842367 9.024946 3.781238 15.753263 -2.826561 0.540101 -13.134804 -37.486462 -14.575839 135.361126 -23.791246 86.868238 0.000001 0.000001 0.000001 60.831762 -20.061039 9.924759 -0.000027 -0.000001 -3.000002 -5.000240 -7.998804 0.000144 -15.619826 53.085770 18.318859 -76.954041 146.868028 119.353826 -0.000002 0.000007 -0.000001 58.908230 25.288823 -12.816052 -0.000010 -0.000002 3.000009 -4.999768 7.998722 -0.000031 -112.494513 168.619366 -0.302542 179.999991 0.000006 -0.423990 106.376023 -0.613496 -1.337725 -0.000006 0.000001 1.234650 71.148004 6.749474 2.365387 25.571501 -7.355352 0.171884 -114.091070 178.032610 10.501492 -0.000004 -0.000005 -0.495658 -83.665364 -3.470881 -1.832275 -0.000002 0.000004 -2.120850 76.256214 -6.570058 -2.545854 26.443929 7.331394 -1.409968 
48.631298 -4.410713 60.580803 45.331614 1.831818 -8.022766 -0.423571 -0.359837 -0.145608 3.131407 -0.719895 -0.304045 4.776531 -0.723480 -0.295397 -22.813723 9.042673 3.789708 15.777800 -2.869350 0.553369 -13.111991 -37.523311 -14.546519 135.360662 -23.804263 87.015866 -0.000001 0.000000 0.000004 60.678069 -20.087095 9.916271 -0.000026 0.000000 -2.999995 -5.000245 -7.998801 0.000139 -15.590323 53.178005 18.284814 -76.942989 146.855105 119.190885 -0.000004 0.000007 -0.000002 58.742195 25.344679 -12.816715 -0.000009 -0.000001 3.000010 -4.999764 7.998722 -0.000033 -112.372232 168.603315 -0.319499 179.999991 0.000005 -0.427992 106.316232 -0.578125 -1.306118 -0.000006 0.000002 1.243560 71.256543 6.757681 2.334167 25.579478 -7.355347 0.183973 -113.950648 178.029687 10.491040 -0.000005 -0.000005 -0.498520 -83.682583 -3.484395 -1.846153 -0.000003 0.000005 -2.129440 76.327255 -6.566974 -2.550945 26.455717 7.330841 -1.426546 
